<?xml version="1.0" standalone="no"?>
<!DOCTYPE svg PUBLIC "-//W3C//DTD SVG 20010904//EN"
 "http://www.w3.org/TR/2001/REC-SVG-20010904/DTD/svg10.dtd">
<svg version="1.0" xmlns="http://www.w3.org/2000/svg"
 width="1024.000000pt" height="1024.000000pt" viewBox="0 0 1024.000000 1024.000000"
 preserveAspectRatio="xMidYMid meet">

<g transform="translate(0.000000,1024.000000) scale(0.100000,-0.100000)"
fill="#000000" stroke="none">
<path d="M5000 6754 c-196 -42 -335 -176 -386 -374 -8 -33 -14 -77 -12 -98 l3
-37 56 -3 c37 -2 59 2 67 10 6 7 18 44 26 81 21 92 44 133 108 193 71 68 145
96 253 96 225 0 388 -167 373 -383 -8 -113 -45 -175 -196 -332 -71 -75 -146
-161 -166 -191 -48 -72 -76 -155 -79 -231 l-2 -60 70 0 70 0 7 60 c13 98 48
154 187 299 70 72 142 153 160 179 112 164 127 349 41 523 -104 213 -337 321
-580 268z"/>
<path d="M4990 5239 c-135 -186 -657 -465 -1890 -1011 -393 -175 -421 -189
-495 -263 -105 -105 -165 -257 -165 -417 l0 -78 2680 0 2680 0 0 73 c-1 191
-81 366 -214 467 -35 27 -191 102 -452 219 -962 430 -1395 643 -1678 829 -104
68 -204 160 -231 211 -16 31 -16 31 -103 31 l-87 0 -45 -61z m360 -285 c255
-175 726 -411 1575 -791 604 -270 596 -265 663 -371 33 -51 67 -155 57 -172
-4 -7 -837 -10 -2531 -10 -2221 0 -2524 2 -2524 15 0 37 45 147 79 191 55 73
108 107 306 196 872 389 1418 648 1660 787 197 113 337 211 410 285 l70 72 80
-75 c44 -42 114 -99 155 -127z"/>
</g>
</svg>
